<mxfile host="Electron" modified="2024-11-25T14:34:21.346Z" agent="Mozilla/5.0 (Windows NT 10.0; Win64; x64) AppleWebKit/537.36 (KHTML, like Gecko) draw.io/21.1.2 Chrome/106.0.5249.199 Electron/21.4.3 Safari/537.36" etag="uAYfuZ4RgoUoWR7aCL3p" version="21.1.2" type="device">
  <diagram name="Page-1" id="sWhyqmJjG2FeOuh5MeMP">
    <mxGraphModel dx="6803" dy="987" grid="1" gridSize="10" guides="1" tooltips="1" connect="1" arrows="1" fold="1" page="1" pageScale="1" pageWidth="1700" pageHeight="1100" math="0" shadow="0">
      <root>
        <mxCell id="0" />
        <mxCell id="1" parent="0" />
        <mxCell id="A9EA3Yb4mj_I-pMkDgrw-6" value="" style="edgeStyle=orthogonalEdgeStyle;rounded=0;orthogonalLoop=1;jettySize=auto;html=1;" parent="1" source="A9EA3Yb4mj_I-pMkDgrw-1" target="A9EA3Yb4mj_I-pMkDgrw-3" edge="1">
          <mxGeometry relative="1" as="geometry" />
        </mxCell>
        <mxCell id="A9EA3Yb4mj_I-pMkDgrw-1" value="Start" style="strokeWidth=2;html=1;shape=mxgraph.flowchart.terminator;whiteSpace=wrap;" parent="1" vertex="1">
          <mxGeometry x="780" y="200" width="100" height="60" as="geometry" />
        </mxCell>
        <mxCell id="A9EA3Yb4mj_I-pMkDgrw-2" value="Stop" style="strokeWidth=2;html=1;shape=mxgraph.flowchart.terminator;whiteSpace=wrap;" parent="1" vertex="1">
          <mxGeometry x="-3060" y="4480" width="100" height="60" as="geometry" />
        </mxCell>
        <mxCell id="A9EA3Yb4mj_I-pMkDgrw-7" style="edgeStyle=orthogonalEdgeStyle;rounded=0;orthogonalLoop=1;jettySize=auto;html=1;entryX=0.5;entryY=0;entryDx=0;entryDy=0;" parent="1" source="A9EA3Yb4mj_I-pMkDgrw-3" target="A9EA3Yb4mj_I-pMkDgrw-4" edge="1">
          <mxGeometry relative="1" as="geometry" />
        </mxCell>
        <mxCell id="A9EA3Yb4mj_I-pMkDgrw-3" value="Matrix1[5][5], Matrix2[5][5], &lt;br&gt;Matrix3[5][5], Matrix4[5][5] = 0&amp;nbsp;" style="rounded=0;whiteSpace=wrap;html=1;" parent="1" vertex="1">
          <mxGeometry x="731.25" y="300" width="197.5" height="60" as="geometry" />
        </mxCell>
        <mxCell id="A9EA3Yb4mj_I-pMkDgrw-8" style="edgeStyle=orthogonalEdgeStyle;rounded=0;orthogonalLoop=1;jettySize=auto;html=1;entryX=0.5;entryY=0;entryDx=0;entryDy=0;" parent="1" source="A9EA3Yb4mj_I-pMkDgrw-4" target="A9EA3Yb4mj_I-pMkDgrw-5" edge="1">
          <mxGeometry relative="1" as="geometry" />
        </mxCell>
        <mxCell id="A9EA3Yb4mj_I-pMkDgrw-4" value="rows1, cols1, rows2, cols2, &lt;br&gt;rows3, cols3, rows4, cols4 = 0&amp;nbsp;" style="rounded=0;whiteSpace=wrap;html=1;" parent="1" vertex="1">
          <mxGeometry x="731.25" y="390" width="198.75" height="60" as="geometry" />
        </mxCell>
        <mxCell id="A9EA3Yb4mj_I-pMkDgrw-11" style="edgeStyle=orthogonalEdgeStyle;rounded=0;orthogonalLoop=1;jettySize=auto;html=1;entryX=0.5;entryY=0;entryDx=0;entryDy=0;" parent="1" source="A9EA3Yb4mj_I-pMkDgrw-5" target="A9EA3Yb4mj_I-pMkDgrw-9" edge="1">
          <mxGeometry relative="1" as="geometry" />
        </mxCell>
        <mxCell id="A9EA3Yb4mj_I-pMkDgrw-5" value="i, j, k = 0&amp;nbsp;" style="rounded=0;whiteSpace=wrap;html=1;" parent="1" vertex="1">
          <mxGeometry x="731.25" y="490" width="198.75" height="60" as="geometry" />
        </mxCell>
        <mxCell id="A9EA3Yb4mj_I-pMkDgrw-12" style="edgeStyle=orthogonalEdgeStyle;rounded=0;orthogonalLoop=1;jettySize=auto;html=1;entryX=0.5;entryY=0;entryDx=0;entryDy=0;" parent="1" source="A9EA3Yb4mj_I-pMkDgrw-9" target="A9EA3Yb4mj_I-pMkDgrw-10" edge="1">
          <mxGeometry relative="1" as="geometry" />
        </mxCell>
        <mxCell id="A9EA3Yb4mj_I-pMkDgrw-9" value="OUTPUT &quot;Enter Matrix1 : &quot;" style="shape=parallelogram;perimeter=parallelogramPerimeter;whiteSpace=wrap;html=1;fixedSize=1;" parent="1" vertex="1">
          <mxGeometry x="718.6" y="590" width="224.06" height="60" as="geometry" />
        </mxCell>
        <mxCell id="A9EA3Yb4mj_I-pMkDgrw-14" style="edgeStyle=orthogonalEdgeStyle;rounded=0;orthogonalLoop=1;jettySize=auto;html=1;entryX=0.5;entryY=0;entryDx=0;entryDy=0;" parent="1" source="A9EA3Yb4mj_I-pMkDgrw-10" target="A9EA3Yb4mj_I-pMkDgrw-13" edge="1">
          <mxGeometry relative="1" as="geometry" />
        </mxCell>
        <mxCell id="A9EA3Yb4mj_I-pMkDgrw-10" value="OUTPUT &quot;Enter number rows and columns :&amp;nbsp; &quot;" style="shape=parallelogram;perimeter=parallelogramPerimeter;whiteSpace=wrap;html=1;fixedSize=1;" parent="1" vertex="1">
          <mxGeometry x="721.25" y="680" width="218.75" height="60" as="geometry" />
        </mxCell>
        <mxCell id="A9EA3Yb4mj_I-pMkDgrw-17" style="edgeStyle=orthogonalEdgeStyle;rounded=0;orthogonalLoop=1;jettySize=auto;html=1;entryX=0.5;entryY=0;entryDx=0;entryDy=0;" parent="1" source="A9EA3Yb4mj_I-pMkDgrw-13" target="A9EA3Yb4mj_I-pMkDgrw-15" edge="1">
          <mxGeometry relative="1" as="geometry" />
        </mxCell>
        <mxCell id="A9EA3Yb4mj_I-pMkDgrw-13" value="INPUT rows1, cols1&amp;nbsp;" style="shape=parallelogram;perimeter=parallelogramPerimeter;whiteSpace=wrap;html=1;fixedSize=1;" parent="1" vertex="1">
          <mxGeometry x="720.63" y="780" width="218.75" height="60" as="geometry" />
        </mxCell>
        <mxCell id="A9EA3Yb4mj_I-pMkDgrw-18" style="edgeStyle=orthogonalEdgeStyle;rounded=0;orthogonalLoop=1;jettySize=auto;html=1;entryX=0.5;entryY=0;entryDx=0;entryDy=0;" parent="1" source="A9EA3Yb4mj_I-pMkDgrw-15" target="A9EA3Yb4mj_I-pMkDgrw-16" edge="1">
          <mxGeometry relative="1" as="geometry" />
        </mxCell>
        <mxCell id="A9EA3Yb4mj_I-pMkDgrw-15" value="i = 0" style="rounded=0;whiteSpace=wrap;html=1;" parent="1" vertex="1">
          <mxGeometry x="770" y="880" width="120" height="60" as="geometry" />
        </mxCell>
        <mxCell id="A9EA3Yb4mj_I-pMkDgrw-21" style="edgeStyle=orthogonalEdgeStyle;rounded=0;orthogonalLoop=1;jettySize=auto;html=1;entryX=0.5;entryY=0;entryDx=0;entryDy=0;" parent="1" source="A9EA3Yb4mj_I-pMkDgrw-16" target="A9EA3Yb4mj_I-pMkDgrw-20" edge="1">
          <mxGeometry relative="1" as="geometry" />
        </mxCell>
        <mxCell id="A9EA3Yb4mj_I-pMkDgrw-33" style="edgeStyle=orthogonalEdgeStyle;rounded=0;orthogonalLoop=1;jettySize=auto;html=1;entryX=0.5;entryY=0;entryDx=0;entryDy=0;" parent="1" source="A9EA3Yb4mj_I-pMkDgrw-16" target="A9EA3Yb4mj_I-pMkDgrw-34" edge="1">
          <mxGeometry relative="1" as="geometry">
            <mxPoint x="469.9999999999998" y="1370.8421566611842" as="targetPoint" />
          </mxGeometry>
        </mxCell>
        <mxCell id="A9EA3Yb4mj_I-pMkDgrw-16" value="i &amp;lt; rows1" style="rhombus;whiteSpace=wrap;html=1;" parent="1" vertex="1">
          <mxGeometry x="791" y="990" width="80" height="80" as="geometry" />
        </mxCell>
        <mxCell id="A9EA3Yb4mj_I-pMkDgrw-25" style="edgeStyle=orthogonalEdgeStyle;rounded=0;orthogonalLoop=1;jettySize=auto;html=1;entryX=0.5;entryY=0;entryDx=0;entryDy=0;" parent="1" source="A9EA3Yb4mj_I-pMkDgrw-19" target="A9EA3Yb4mj_I-pMkDgrw-23" edge="1">
          <mxGeometry relative="1" as="geometry" />
        </mxCell>
        <mxCell id="A9EA3Yb4mj_I-pMkDgrw-30" style="edgeStyle=orthogonalEdgeStyle;rounded=0;orthogonalLoop=1;jettySize=auto;html=1;entryX=0.5;entryY=0;entryDx=0;entryDy=0;exitX=0;exitY=0.5;exitDx=0;exitDy=0;" parent="1" source="A9EA3Yb4mj_I-pMkDgrw-19" target="A9EA3Yb4mj_I-pMkDgrw-31" edge="1">
          <mxGeometry relative="1" as="geometry">
            <mxPoint x="830" y="1470" as="targetPoint" />
          </mxGeometry>
        </mxCell>
        <mxCell id="A9EA3Yb4mj_I-pMkDgrw-19" value="j &amp;lt; cols1" style="rhombus;whiteSpace=wrap;html=1;" parent="1" vertex="1">
          <mxGeometry x="990" y="1210" width="80" height="80" as="geometry" />
        </mxCell>
        <mxCell id="A9EA3Yb4mj_I-pMkDgrw-22" style="edgeStyle=orthogonalEdgeStyle;rounded=0;orthogonalLoop=1;jettySize=auto;html=1;entryX=0.5;entryY=0;entryDx=0;entryDy=0;" parent="1" source="A9EA3Yb4mj_I-pMkDgrw-20" target="A9EA3Yb4mj_I-pMkDgrw-19" edge="1">
          <mxGeometry relative="1" as="geometry" />
        </mxCell>
        <mxCell id="A9EA3Yb4mj_I-pMkDgrw-20" value="j = 0" style="rounded=0;whiteSpace=wrap;html=1;" parent="1" vertex="1">
          <mxGeometry x="970" y="1090" width="120" height="60" as="geometry" />
        </mxCell>
        <mxCell id="A9EA3Yb4mj_I-pMkDgrw-26" style="edgeStyle=orthogonalEdgeStyle;rounded=0;orthogonalLoop=1;jettySize=auto;html=1;entryX=0.5;entryY=0;entryDx=0;entryDy=0;" parent="1" source="A9EA3Yb4mj_I-pMkDgrw-23" target="A9EA3Yb4mj_I-pMkDgrw-24" edge="1">
          <mxGeometry relative="1" as="geometry" />
        </mxCell>
        <mxCell id="A9EA3Yb4mj_I-pMkDgrw-23" value="OUTPUT &quot;Enter&quot; i + j &quot;value : &quot;" style="shape=parallelogram;perimeter=parallelogramPerimeter;whiteSpace=wrap;html=1;fixedSize=1;" parent="1" vertex="1">
          <mxGeometry x="1070.62" y="1330" width="218.75" height="60" as="geometry" />
        </mxCell>
        <mxCell id="A9EA3Yb4mj_I-pMkDgrw-28" style="edgeStyle=orthogonalEdgeStyle;rounded=0;orthogonalLoop=1;jettySize=auto;html=1;entryX=0.5;entryY=0;entryDx=0;entryDy=0;" parent="1" source="A9EA3Yb4mj_I-pMkDgrw-24" target="A9EA3Yb4mj_I-pMkDgrw-27" edge="1">
          <mxGeometry relative="1" as="geometry" />
        </mxCell>
        <mxCell id="A9EA3Yb4mj_I-pMkDgrw-24" value="INPUT Matrix1[ i ][ j ]" style="shape=parallelogram;perimeter=parallelogramPerimeter;whiteSpace=wrap;html=1;fixedSize=1;" parent="1" vertex="1">
          <mxGeometry x="1070" y="1430" width="218.75" height="60" as="geometry" />
        </mxCell>
        <mxCell id="A9EA3Yb4mj_I-pMkDgrw-29" style="edgeStyle=orthogonalEdgeStyle;rounded=0;orthogonalLoop=1;jettySize=auto;html=1;exitX=0.5;exitY=1;exitDx=0;exitDy=0;" parent="1" source="A9EA3Yb4mj_I-pMkDgrw-47" edge="1">
          <mxGeometry relative="1" as="geometry">
            <mxPoint x="1030" y="1180" as="targetPoint" />
            <Array as="points">
              <mxPoint x="1180" y="1620" />
              <mxPoint x="1340" y="1620" />
              <mxPoint x="1340" y="1180" />
            </Array>
          </mxGeometry>
        </mxCell>
        <mxCell id="A9EA3Yb4mj_I-pMkDgrw-27" value="j += 1" style="rounded=0;whiteSpace=wrap;html=1;" parent="1" vertex="1">
          <mxGeometry x="1120" y="1530" width="120" height="60" as="geometry" />
        </mxCell>
        <mxCell id="A9EA3Yb4mj_I-pMkDgrw-32" style="edgeStyle=orthogonalEdgeStyle;rounded=0;orthogonalLoop=1;jettySize=auto;html=1;exitX=0.5;exitY=1;exitDx=0;exitDy=0;" parent="1" source="A9EA3Yb4mj_I-pMkDgrw-31" edge="1">
          <mxGeometry relative="1" as="geometry">
            <mxPoint x="830" y="960.0000000000002" as="targetPoint" />
            <Array as="points">
              <mxPoint x="900" y="1680" />
              <mxPoint x="1400" y="1680" />
              <mxPoint x="1400" y="960" />
            </Array>
          </mxGeometry>
        </mxCell>
        <mxCell id="A9EA3Yb4mj_I-pMkDgrw-31" value="i += 1" style="rounded=0;whiteSpace=wrap;html=1;" parent="1" vertex="1">
          <mxGeometry x="840" y="1330" width="120" height="60" as="geometry" />
        </mxCell>
        <mxCell id="A9EA3Yb4mj_I-pMkDgrw-38" style="edgeStyle=orthogonalEdgeStyle;rounded=0;orthogonalLoop=1;jettySize=auto;html=1;entryX=0.5;entryY=0;entryDx=0;entryDy=0;" parent="1" source="A9EA3Yb4mj_I-pMkDgrw-34" target="A9EA3Yb4mj_I-pMkDgrw-35" edge="1">
          <mxGeometry relative="1" as="geometry" />
        </mxCell>
        <mxCell id="A9EA3Yb4mj_I-pMkDgrw-34" value="OUTPUT &quot;Enter Matrix2 : &quot;" style="shape=parallelogram;perimeter=parallelogramPerimeter;whiteSpace=wrap;html=1;fixedSize=1;" parent="1" vertex="1">
          <mxGeometry x="150" y="1100" width="224.06" height="60" as="geometry" />
        </mxCell>
        <mxCell id="A9EA3Yb4mj_I-pMkDgrw-39" style="edgeStyle=orthogonalEdgeStyle;rounded=0;orthogonalLoop=1;jettySize=auto;html=1;entryX=0.5;entryY=0;entryDx=0;entryDy=0;" parent="1" source="A9EA3Yb4mj_I-pMkDgrw-35" target="A9EA3Yb4mj_I-pMkDgrw-36" edge="1">
          <mxGeometry relative="1" as="geometry" />
        </mxCell>
        <mxCell id="A9EA3Yb4mj_I-pMkDgrw-35" value="OUTPUT &quot;Enter number rows and columns :&amp;nbsp; &quot;" style="shape=parallelogram;perimeter=parallelogramPerimeter;whiteSpace=wrap;html=1;fixedSize=1;" parent="1" vertex="1">
          <mxGeometry x="152.64999999999998" y="1190" width="218.75" height="60" as="geometry" />
        </mxCell>
        <mxCell id="A9EA3Yb4mj_I-pMkDgrw-56" style="edgeStyle=orthogonalEdgeStyle;rounded=0;orthogonalLoop=1;jettySize=auto;html=1;entryX=0.5;entryY=0;entryDx=0;entryDy=0;" parent="1" source="A9EA3Yb4mj_I-pMkDgrw-36" target="A9EA3Yb4mj_I-pMkDgrw-54" edge="1">
          <mxGeometry relative="1" as="geometry" />
        </mxCell>
        <mxCell id="A9EA3Yb4mj_I-pMkDgrw-36" value="INPUT rows2, cols2" style="shape=parallelogram;perimeter=parallelogramPerimeter;whiteSpace=wrap;html=1;fixedSize=1;" parent="1" vertex="1">
          <mxGeometry x="152.02999999999997" y="1290" width="218.75" height="60" as="geometry" />
        </mxCell>
        <mxCell id="A9EA3Yb4mj_I-pMkDgrw-47" value="j += 1" style="rounded=0;whiteSpace=wrap;html=1;" parent="1" vertex="1">
          <mxGeometry x="1120" y="1530" width="120" height="60" as="geometry" />
        </mxCell>
        <mxCell id="A9EA3Yb4mj_I-pMkDgrw-62" style="edgeStyle=orthogonalEdgeStyle;rounded=0;orthogonalLoop=1;jettySize=auto;html=1;entryX=0.5;entryY=0;entryDx=0;entryDy=0;exitX=1;exitY=0.5;exitDx=0;exitDy=0;" parent="1" source="A9EA3Yb4mj_I-pMkDgrw-48" target="A9EA3Yb4mj_I-pMkDgrw-50" edge="1">
          <mxGeometry relative="1" as="geometry" />
        </mxCell>
        <mxCell id="A9EA3Yb4mj_I-pMkDgrw-64" style="edgeStyle=orthogonalEdgeStyle;rounded=0;orthogonalLoop=1;jettySize=auto;html=1;" parent="1" source="A9EA3Yb4mj_I-pMkDgrw-48" target="A9EA3Yb4mj_I-pMkDgrw-52" edge="1">
          <mxGeometry relative="1" as="geometry" />
        </mxCell>
        <mxCell id="A9EA3Yb4mj_I-pMkDgrw-48" value="j &amp;lt; cols2" style="rhombus;whiteSpace=wrap;html=1;" parent="1" vertex="1">
          <mxGeometry x="391.4" y="1700" width="80" height="80" as="geometry" />
        </mxCell>
        <mxCell id="A9EA3Yb4mj_I-pMkDgrw-59" style="edgeStyle=orthogonalEdgeStyle;rounded=0;orthogonalLoop=1;jettySize=auto;html=1;entryX=0.5;entryY=0;entryDx=0;entryDy=0;" parent="1" source="A9EA3Yb4mj_I-pMkDgrw-49" target="A9EA3Yb4mj_I-pMkDgrw-48" edge="1">
          <mxGeometry relative="1" as="geometry" />
        </mxCell>
        <mxCell id="A9EA3Yb4mj_I-pMkDgrw-49" value="j = 0" style="rounded=0;whiteSpace=wrap;html=1;" parent="1" vertex="1">
          <mxGeometry x="371.4" y="1590" width="120" height="60" as="geometry" />
        </mxCell>
        <mxCell id="A9EA3Yb4mj_I-pMkDgrw-60" style="edgeStyle=orthogonalEdgeStyle;rounded=0;orthogonalLoop=1;jettySize=auto;html=1;entryX=0.5;entryY=0;entryDx=0;entryDy=0;" parent="1" source="A9EA3Yb4mj_I-pMkDgrw-50" target="A9EA3Yb4mj_I-pMkDgrw-51" edge="1">
          <mxGeometry relative="1" as="geometry" />
        </mxCell>
        <mxCell id="A9EA3Yb4mj_I-pMkDgrw-50" value="OUTPUT &quot;Enter&quot; i + j &quot;value : &quot;" style="shape=parallelogram;perimeter=parallelogramPerimeter;whiteSpace=wrap;html=1;fixedSize=1;" parent="1" vertex="1">
          <mxGeometry x="471.4" y="1800" width="218.75" height="60" as="geometry" />
        </mxCell>
        <mxCell id="A9EA3Yb4mj_I-pMkDgrw-61" style="edgeStyle=orthogonalEdgeStyle;rounded=0;orthogonalLoop=1;jettySize=auto;html=1;entryX=0.5;entryY=0;entryDx=0;entryDy=0;" parent="1" source="A9EA3Yb4mj_I-pMkDgrw-51" target="A9EA3Yb4mj_I-pMkDgrw-53" edge="1">
          <mxGeometry relative="1" as="geometry" />
        </mxCell>
        <mxCell id="A9EA3Yb4mj_I-pMkDgrw-51" value="INPUT Matrix2[ i ][ j ]" style="shape=parallelogram;perimeter=parallelogramPerimeter;whiteSpace=wrap;html=1;fixedSize=1;" parent="1" vertex="1">
          <mxGeometry x="471.4" y="1900" width="218.75" height="60" as="geometry" />
        </mxCell>
        <mxCell id="A9EA3Yb4mj_I-pMkDgrw-65" style="edgeStyle=orthogonalEdgeStyle;rounded=0;orthogonalLoop=1;jettySize=auto;html=1;" parent="1" source="A9EA3Yb4mj_I-pMkDgrw-52" edge="1">
          <mxGeometry relative="1" as="geometry">
            <mxPoint x="260" y="1470" as="targetPoint" />
            <Array as="points">
              <mxPoint x="311" y="2140" />
              <mxPoint x="780" y="2140" />
              <mxPoint x="780" y="1470" />
            </Array>
          </mxGeometry>
        </mxCell>
        <mxCell id="A9EA3Yb4mj_I-pMkDgrw-52" value="i += 1" style="rounded=0;whiteSpace=wrap;html=1;" parent="1" vertex="1">
          <mxGeometry x="250.78000000000003" y="1800" width="120" height="60" as="geometry" />
        </mxCell>
        <mxCell id="A9EA3Yb4mj_I-pMkDgrw-63" style="edgeStyle=orthogonalEdgeStyle;rounded=0;orthogonalLoop=1;jettySize=auto;html=1;" parent="1" source="A9EA3Yb4mj_I-pMkDgrw-53" edge="1">
          <mxGeometry relative="1" as="geometry">
            <mxPoint x="430.0000000000002" y="1670" as="targetPoint" />
            <Array as="points">
              <mxPoint x="581" y="2090" />
              <mxPoint x="730" y="2090" />
              <mxPoint x="730" y="1670" />
            </Array>
          </mxGeometry>
        </mxCell>
        <mxCell id="A9EA3Yb4mj_I-pMkDgrw-53" value="j += 1" style="rounded=0;whiteSpace=wrap;html=1;" parent="1" vertex="1">
          <mxGeometry x="520.78" y="2000" width="120" height="60" as="geometry" />
        </mxCell>
        <mxCell id="A9EA3Yb4mj_I-pMkDgrw-57" style="edgeStyle=orthogonalEdgeStyle;rounded=0;orthogonalLoop=1;jettySize=auto;html=1;" parent="1" source="A9EA3Yb4mj_I-pMkDgrw-54" target="A9EA3Yb4mj_I-pMkDgrw-55" edge="1">
          <mxGeometry relative="1" as="geometry" />
        </mxCell>
        <mxCell id="A9EA3Yb4mj_I-pMkDgrw-54" value="i = 0" style="rounded=0;whiteSpace=wrap;html=1;" parent="1" vertex="1">
          <mxGeometry x="202.02999999999997" y="1390" width="120" height="60" as="geometry" />
        </mxCell>
        <mxCell id="A9EA3Yb4mj_I-pMkDgrw-58" style="edgeStyle=orthogonalEdgeStyle;rounded=0;orthogonalLoop=1;jettySize=auto;html=1;entryX=0.5;entryY=0;entryDx=0;entryDy=0;" parent="1" source="A9EA3Yb4mj_I-pMkDgrw-55" target="A9EA3Yb4mj_I-pMkDgrw-49" edge="1">
          <mxGeometry relative="1" as="geometry" />
        </mxCell>
        <mxCell id="A9EA3Yb4mj_I-pMkDgrw-67" style="edgeStyle=orthogonalEdgeStyle;rounded=0;orthogonalLoop=1;jettySize=auto;html=1;entryX=0.5;entryY=0;entryDx=0;entryDy=0;" parent="1" source="A9EA3Yb4mj_I-pMkDgrw-55" target="A9EA3Yb4mj_I-pMkDgrw-68" edge="1">
          <mxGeometry relative="1" as="geometry">
            <mxPoint x="-200" y="1610" as="targetPoint" />
          </mxGeometry>
        </mxCell>
        <mxCell id="A9EA3Yb4mj_I-pMkDgrw-55" value="i &amp;lt; rows2" style="rhombus;whiteSpace=wrap;html=1;" parent="1" vertex="1">
          <mxGeometry x="221.41000000000003" y="1490" width="80" height="80" as="geometry" />
        </mxCell>
        <mxCell id="A9EA3Yb4mj_I-pMkDgrw-74" style="edgeStyle=orthogonalEdgeStyle;rounded=0;orthogonalLoop=1;jettySize=auto;html=1;entryX=0.5;entryY=0;entryDx=0;entryDy=0;" parent="1" source="A9EA3Yb4mj_I-pMkDgrw-68" target="A9EA3Yb4mj_I-pMkDgrw-73" edge="1">
          <mxGeometry relative="1" as="geometry" />
        </mxCell>
        <mxCell id="A9EA3Yb4mj_I-pMkDgrw-68" value="OUTPUT &quot;Matrix1 : &quot;" style="shape=parallelogram;perimeter=parallelogramPerimeter;whiteSpace=wrap;html=1;fixedSize=1;" parent="1" vertex="1">
          <mxGeometry x="-410" y="1590" width="218.75" height="60" as="geometry" />
        </mxCell>
        <mxCell id="A9EA3Yb4mj_I-pMkDgrw-69" value="i = 0" style="rounded=0;whiteSpace=wrap;html=1;" parent="1" vertex="1">
          <mxGeometry x="771" y="880" width="120" height="60" as="geometry" />
        </mxCell>
        <mxCell id="A9EA3Yb4mj_I-pMkDgrw-76" style="edgeStyle=orthogonalEdgeStyle;rounded=0;orthogonalLoop=1;jettySize=auto;html=1;entryX=0.5;entryY=0;entryDx=0;entryDy=0;" parent="1" source="A9EA3Yb4mj_I-pMkDgrw-70" target="A9EA3Yb4mj_I-pMkDgrw-72" edge="1">
          <mxGeometry relative="1" as="geometry" />
        </mxCell>
        <mxCell id="A9EA3Yb4mj_I-pMkDgrw-89" style="edgeStyle=orthogonalEdgeStyle;rounded=0;orthogonalLoop=1;jettySize=auto;html=1;entryX=0.5;entryY=0;entryDx=0;entryDy=0;" parent="1" source="A9EA3Yb4mj_I-pMkDgrw-70" target="A9EA3Yb4mj_I-pMkDgrw-91" edge="1">
          <mxGeometry relative="1" as="geometry">
            <mxPoint x="-1450" y="2020" as="targetPoint" />
          </mxGeometry>
        </mxCell>
        <mxCell id="A9EA3Yb4mj_I-pMkDgrw-70" value="i &amp;lt; rows1" style="rhombus;whiteSpace=wrap;html=1;" parent="1" vertex="1">
          <mxGeometry x="-340" y="1805" width="80" height="80" as="geometry" />
        </mxCell>
        <mxCell id="A9EA3Yb4mj_I-pMkDgrw-80" style="edgeStyle=orthogonalEdgeStyle;rounded=0;orthogonalLoop=1;jettySize=auto;html=1;exitX=1;exitY=0.5;exitDx=0;exitDy=0;" parent="1" source="A9EA3Yb4mj_I-pMkDgrw-71" target="A9EA3Yb4mj_I-pMkDgrw-78" edge="1">
          <mxGeometry relative="1" as="geometry" />
        </mxCell>
        <mxCell id="A9EA3Yb4mj_I-pMkDgrw-84" style="edgeStyle=orthogonalEdgeStyle;rounded=0;orthogonalLoop=1;jettySize=auto;html=1;" parent="1" source="A9EA3Yb4mj_I-pMkDgrw-71" target="A9EA3Yb4mj_I-pMkDgrw-83" edge="1">
          <mxGeometry relative="1" as="geometry" />
        </mxCell>
        <mxCell id="A9EA3Yb4mj_I-pMkDgrw-71" value="j &amp;lt; cols1" style="rhombus;whiteSpace=wrap;html=1;" parent="1" vertex="1">
          <mxGeometry x="-200" y="2030" width="80" height="80" as="geometry" />
        </mxCell>
        <mxCell id="A9EA3Yb4mj_I-pMkDgrw-77" style="edgeStyle=orthogonalEdgeStyle;rounded=0;orthogonalLoop=1;jettySize=auto;html=1;entryX=0.5;entryY=0;entryDx=0;entryDy=0;" parent="1" source="A9EA3Yb4mj_I-pMkDgrw-72" target="A9EA3Yb4mj_I-pMkDgrw-71" edge="1">
          <mxGeometry relative="1" as="geometry" />
        </mxCell>
        <mxCell id="A9EA3Yb4mj_I-pMkDgrw-72" value="j = 0" style="rounded=0;whiteSpace=wrap;html=1;" parent="1" vertex="1">
          <mxGeometry x="-220" y="1910" width="120" height="60" as="geometry" />
        </mxCell>
        <mxCell id="A9EA3Yb4mj_I-pMkDgrw-75" style="edgeStyle=orthogonalEdgeStyle;rounded=0;orthogonalLoop=1;jettySize=auto;html=1;" parent="1" source="A9EA3Yb4mj_I-pMkDgrw-73" target="A9EA3Yb4mj_I-pMkDgrw-70" edge="1">
          <mxGeometry relative="1" as="geometry" />
        </mxCell>
        <mxCell id="A9EA3Yb4mj_I-pMkDgrw-73" value="i = 0" style="rounded=0;whiteSpace=wrap;html=1;" parent="1" vertex="1">
          <mxGeometry x="-360" y="1695" width="120" height="60" as="geometry" />
        </mxCell>
        <mxCell id="A9EA3Yb4mj_I-pMkDgrw-81" style="edgeStyle=orthogonalEdgeStyle;rounded=0;orthogonalLoop=1;jettySize=auto;html=1;entryX=0.5;entryY=0;entryDx=0;entryDy=0;" parent="1" source="A9EA3Yb4mj_I-pMkDgrw-78" target="A9EA3Yb4mj_I-pMkDgrw-79" edge="1">
          <mxGeometry relative="1" as="geometry" />
        </mxCell>
        <mxCell id="A9EA3Yb4mj_I-pMkDgrw-78" value="OUTPUT Matrix1[ i ] [ j ]" style="shape=parallelogram;perimeter=parallelogramPerimeter;whiteSpace=wrap;html=1;fixedSize=1;" parent="1" vertex="1">
          <mxGeometry x="-120" y="2150" width="190" height="60" as="geometry" />
        </mxCell>
        <mxCell id="A9EA3Yb4mj_I-pMkDgrw-82" style="edgeStyle=orthogonalEdgeStyle;rounded=0;orthogonalLoop=1;jettySize=auto;html=1;" parent="1" source="A9EA3Yb4mj_I-pMkDgrw-79" edge="1">
          <mxGeometry relative="1" as="geometry">
            <mxPoint x="-160" y="2000" as="targetPoint" />
            <Array as="points">
              <mxPoint x="-25" y="2360" />
              <mxPoint x="100" y="2360" />
              <mxPoint x="100" y="2000" />
            </Array>
          </mxGeometry>
        </mxCell>
        <mxCell id="A9EA3Yb4mj_I-pMkDgrw-79" value="j += 1" style="rounded=0;whiteSpace=wrap;html=1;" parent="1" vertex="1">
          <mxGeometry x="-85" y="2260" width="120" height="60" as="geometry" />
        </mxCell>
        <mxCell id="A9EA3Yb4mj_I-pMkDgrw-85" style="edgeStyle=orthogonalEdgeStyle;rounded=0;orthogonalLoop=1;jettySize=auto;html=1;" parent="1" source="A9EA3Yb4mj_I-pMkDgrw-83" edge="1">
          <mxGeometry relative="1" as="geometry">
            <mxPoint x="-300" y="1770" as="targetPoint" />
            <Array as="points">
              <mxPoint x="-280" y="2410" />
              <mxPoint x="150" y="2410" />
              <mxPoint x="150" y="1770" />
            </Array>
          </mxGeometry>
        </mxCell>
        <mxCell id="A9EA3Yb4mj_I-pMkDgrw-83" value="i += 1" style="rounded=0;whiteSpace=wrap;html=1;" parent="1" vertex="1">
          <mxGeometry x="-339.99999999999994" y="2150" width="120" height="60" as="geometry" />
        </mxCell>
        <mxCell id="A9EA3Yb4mj_I-pMkDgrw-90" style="edgeStyle=orthogonalEdgeStyle;rounded=0;orthogonalLoop=1;jettySize=auto;html=1;entryX=0.5;entryY=0;entryDx=0;entryDy=0;" parent="1" source="A9EA3Yb4mj_I-pMkDgrw-91" target="A9EA3Yb4mj_I-pMkDgrw-100" edge="1">
          <mxGeometry relative="1" as="geometry" />
        </mxCell>
        <mxCell id="A9EA3Yb4mj_I-pMkDgrw-91" value="OUTPUT &quot;Matrix2 : &quot;" style="shape=parallelogram;perimeter=parallelogramPerimeter;whiteSpace=wrap;html=1;fixedSize=1;" parent="1" vertex="1">
          <mxGeometry x="-970" y="1910" width="218.75" height="60" as="geometry" />
        </mxCell>
        <mxCell id="A9EA3Yb4mj_I-pMkDgrw-92" style="edgeStyle=orthogonalEdgeStyle;rounded=0;orthogonalLoop=1;jettySize=auto;html=1;entryX=0.5;entryY=0;entryDx=0;entryDy=0;" parent="1" source="A9EA3Yb4mj_I-pMkDgrw-93" target="A9EA3Yb4mj_I-pMkDgrw-98" edge="1">
          <mxGeometry relative="1" as="geometry" />
        </mxCell>
        <mxCell id="A9EA3Yb4mj_I-pMkDgrw-109" style="edgeStyle=orthogonalEdgeStyle;rounded=0;orthogonalLoop=1;jettySize=auto;html=1;exitX=0;exitY=0.5;exitDx=0;exitDy=0;" parent="1" source="A9EA3Yb4mj_I-pMkDgrw-93" target="A9EA3Yb4mj_I-pMkDgrw-107" edge="1">
          <mxGeometry relative="1" as="geometry">
            <mxPoint x="-990" y="2165" as="sourcePoint" />
          </mxGeometry>
        </mxCell>
        <mxCell id="A9EA3Yb4mj_I-pMkDgrw-93" value="i &amp;lt; rows2" style="rhombus;whiteSpace=wrap;html=1;" parent="1" vertex="1">
          <mxGeometry x="-900" y="2125" width="80" height="80" as="geometry" />
        </mxCell>
        <mxCell id="A9EA3Yb4mj_I-pMkDgrw-94" style="edgeStyle=orthogonalEdgeStyle;rounded=0;orthogonalLoop=1;jettySize=auto;html=1;exitX=1;exitY=0.5;exitDx=0;exitDy=0;" parent="1" source="A9EA3Yb4mj_I-pMkDgrw-96" target="A9EA3Yb4mj_I-pMkDgrw-102" edge="1">
          <mxGeometry relative="1" as="geometry" />
        </mxCell>
        <mxCell id="A9EA3Yb4mj_I-pMkDgrw-95" style="edgeStyle=orthogonalEdgeStyle;rounded=0;orthogonalLoop=1;jettySize=auto;html=1;" parent="1" source="A9EA3Yb4mj_I-pMkDgrw-96" target="A9EA3Yb4mj_I-pMkDgrw-106" edge="1">
          <mxGeometry relative="1" as="geometry" />
        </mxCell>
        <mxCell id="A9EA3Yb4mj_I-pMkDgrw-96" value="j &amp;lt; cols2" style="rhombus;whiteSpace=wrap;html=1;" parent="1" vertex="1">
          <mxGeometry x="-760" y="2350" width="80" height="80" as="geometry" />
        </mxCell>
        <mxCell id="A9EA3Yb4mj_I-pMkDgrw-97" style="edgeStyle=orthogonalEdgeStyle;rounded=0;orthogonalLoop=1;jettySize=auto;html=1;entryX=0.5;entryY=0;entryDx=0;entryDy=0;" parent="1" source="A9EA3Yb4mj_I-pMkDgrw-98" target="A9EA3Yb4mj_I-pMkDgrw-96" edge="1">
          <mxGeometry relative="1" as="geometry" />
        </mxCell>
        <mxCell id="A9EA3Yb4mj_I-pMkDgrw-98" value="j = 0" style="rounded=0;whiteSpace=wrap;html=1;" parent="1" vertex="1">
          <mxGeometry x="-780" y="2230" width="120" height="60" as="geometry" />
        </mxCell>
        <mxCell id="A9EA3Yb4mj_I-pMkDgrw-99" style="edgeStyle=orthogonalEdgeStyle;rounded=0;orthogonalLoop=1;jettySize=auto;html=1;" parent="1" source="A9EA3Yb4mj_I-pMkDgrw-100" target="A9EA3Yb4mj_I-pMkDgrw-93" edge="1">
          <mxGeometry relative="1" as="geometry" />
        </mxCell>
        <mxCell id="A9EA3Yb4mj_I-pMkDgrw-100" value="i = 0" style="rounded=0;whiteSpace=wrap;html=1;" parent="1" vertex="1">
          <mxGeometry x="-920" y="2015" width="120" height="60" as="geometry" />
        </mxCell>
        <mxCell id="A9EA3Yb4mj_I-pMkDgrw-101" style="edgeStyle=orthogonalEdgeStyle;rounded=0;orthogonalLoop=1;jettySize=auto;html=1;entryX=0.5;entryY=0;entryDx=0;entryDy=0;" parent="1" source="A9EA3Yb4mj_I-pMkDgrw-102" target="A9EA3Yb4mj_I-pMkDgrw-104" edge="1">
          <mxGeometry relative="1" as="geometry" />
        </mxCell>
        <mxCell id="A9EA3Yb4mj_I-pMkDgrw-102" value="OUTPUT Matrix2[ i ] [ j ]" style="shape=parallelogram;perimeter=parallelogramPerimeter;whiteSpace=wrap;html=1;fixedSize=1;" parent="1" vertex="1">
          <mxGeometry x="-680" y="2470" width="190" height="60" as="geometry" />
        </mxCell>
        <mxCell id="A9EA3Yb4mj_I-pMkDgrw-103" style="edgeStyle=orthogonalEdgeStyle;rounded=0;orthogonalLoop=1;jettySize=auto;html=1;" parent="1" source="A9EA3Yb4mj_I-pMkDgrw-104" edge="1">
          <mxGeometry relative="1" as="geometry">
            <mxPoint x="-720" y="2320" as="targetPoint" />
            <Array as="points">
              <mxPoint x="-585" y="2680" />
              <mxPoint x="-460" y="2680" />
              <mxPoint x="-460" y="2320" />
            </Array>
          </mxGeometry>
        </mxCell>
        <mxCell id="A9EA3Yb4mj_I-pMkDgrw-104" value="j += 1" style="rounded=0;whiteSpace=wrap;html=1;" parent="1" vertex="1">
          <mxGeometry x="-645" y="2580" width="120" height="60" as="geometry" />
        </mxCell>
        <mxCell id="A9EA3Yb4mj_I-pMkDgrw-105" style="edgeStyle=orthogonalEdgeStyle;rounded=0;orthogonalLoop=1;jettySize=auto;html=1;" parent="1" source="A9EA3Yb4mj_I-pMkDgrw-106" edge="1">
          <mxGeometry relative="1" as="geometry">
            <mxPoint x="-860" y="2090" as="targetPoint" />
            <Array as="points">
              <mxPoint x="-840" y="2730" />
              <mxPoint x="-410" y="2730" />
              <mxPoint x="-410" y="2090" />
            </Array>
          </mxGeometry>
        </mxCell>
        <mxCell id="A9EA3Yb4mj_I-pMkDgrw-106" value="i += 1" style="rounded=0;whiteSpace=wrap;html=1;" parent="1" vertex="1">
          <mxGeometry x="-900" y="2470" width="120" height="60" as="geometry" />
        </mxCell>
        <mxCell id="A9EA3Yb4mj_I-pMkDgrw-110" style="edgeStyle=orthogonalEdgeStyle;rounded=0;orthogonalLoop=1;jettySize=auto;html=1;entryX=0.5;entryY=0;entryDx=0;entryDy=0;" parent="1" source="A9EA3Yb4mj_I-pMkDgrw-107" target="A9EA3Yb4mj_I-pMkDgrw-108" edge="1">
          <mxGeometry relative="1" as="geometry" />
        </mxCell>
        <mxCell id="A9EA3Yb4mj_I-pMkDgrw-107" value="rows3 = cols1" style="rounded=0;whiteSpace=wrap;html=1;" parent="1" vertex="1">
          <mxGeometry x="-1420" y="2230" width="120" height="60" as="geometry" />
        </mxCell>
        <mxCell id="A9EA3Yb4mj_I-pMkDgrw-112" style="edgeStyle=orthogonalEdgeStyle;rounded=0;orthogonalLoop=1;jettySize=auto;html=1;entryX=0.5;entryY=0;entryDx=0;entryDy=0;" parent="1" source="A9EA3Yb4mj_I-pMkDgrw-108" target="A9EA3Yb4mj_I-pMkDgrw-111" edge="1">
          <mxGeometry relative="1" as="geometry" />
        </mxCell>
        <mxCell id="A9EA3Yb4mj_I-pMkDgrw-108" value="cols3 = rows1" style="rounded=0;whiteSpace=wrap;html=1;" parent="1" vertex="1">
          <mxGeometry x="-1420" y="2330" width="120" height="60" as="geometry" />
        </mxCell>
        <mxCell id="A9EA3Yb4mj_I-pMkDgrw-116" style="edgeStyle=orthogonalEdgeStyle;rounded=0;orthogonalLoop=1;jettySize=auto;html=1;" parent="1" source="A9EA3Yb4mj_I-pMkDgrw-111" target="A9EA3Yb4mj_I-pMkDgrw-113" edge="1">
          <mxGeometry relative="1" as="geometry" />
        </mxCell>
        <mxCell id="A9EA3Yb4mj_I-pMkDgrw-111" value="i = 0" style="rounded=0;whiteSpace=wrap;html=1;" parent="1" vertex="1">
          <mxGeometry x="-1420" y="2430" width="120" height="60" as="geometry" />
        </mxCell>
        <mxCell id="A9EA3Yb4mj_I-pMkDgrw-117" style="edgeStyle=orthogonalEdgeStyle;rounded=0;orthogonalLoop=1;jettySize=auto;html=1;entryX=0.5;entryY=0;entryDx=0;entryDy=0;" parent="1" source="A9EA3Yb4mj_I-pMkDgrw-113" target="A9EA3Yb4mj_I-pMkDgrw-114" edge="1">
          <mxGeometry relative="1" as="geometry" />
        </mxCell>
        <mxCell id="A9EA3Yb4mj_I-pMkDgrw-127" style="edgeStyle=orthogonalEdgeStyle;rounded=0;orthogonalLoop=1;jettySize=auto;html=1;entryX=0.5;entryY=0;entryDx=0;entryDy=0;" parent="1" source="A9EA3Yb4mj_I-pMkDgrw-113" target="A9EA3Yb4mj_I-pMkDgrw-128" edge="1">
          <mxGeometry relative="1" as="geometry">
            <mxPoint x="-1830" y="2860" as="targetPoint" />
          </mxGeometry>
        </mxCell>
        <mxCell id="A9EA3Yb4mj_I-pMkDgrw-113" value="i &amp;lt; rows3" style="rhombus;whiteSpace=wrap;html=1;" parent="1" vertex="1">
          <mxGeometry x="-1400" y="2540" width="80" height="80" as="geometry" />
        </mxCell>
        <mxCell id="A9EA3Yb4mj_I-pMkDgrw-118" style="edgeStyle=orthogonalEdgeStyle;rounded=0;orthogonalLoop=1;jettySize=auto;html=1;entryX=0.5;entryY=0;entryDx=0;entryDy=0;" parent="1" source="A9EA3Yb4mj_I-pMkDgrw-114" target="A9EA3Yb4mj_I-pMkDgrw-115" edge="1">
          <mxGeometry relative="1" as="geometry" />
        </mxCell>
        <mxCell id="A9EA3Yb4mj_I-pMkDgrw-114" value="j = 0" style="rounded=0;whiteSpace=wrap;html=1;" parent="1" vertex="1">
          <mxGeometry x="-1310" y="2630" width="120" height="60" as="geometry" />
        </mxCell>
        <mxCell id="A9EA3Yb4mj_I-pMkDgrw-122" style="edgeStyle=orthogonalEdgeStyle;rounded=0;orthogonalLoop=1;jettySize=auto;html=1;" parent="1" source="A9EA3Yb4mj_I-pMkDgrw-115" target="A9EA3Yb4mj_I-pMkDgrw-119" edge="1">
          <mxGeometry relative="1" as="geometry" />
        </mxCell>
        <mxCell id="A9EA3Yb4mj_I-pMkDgrw-125" style="edgeStyle=orthogonalEdgeStyle;rounded=0;orthogonalLoop=1;jettySize=auto;html=1;entryX=0.5;entryY=0;entryDx=0;entryDy=0;" parent="1" source="A9EA3Yb4mj_I-pMkDgrw-115" target="A9EA3Yb4mj_I-pMkDgrw-124" edge="1">
          <mxGeometry relative="1" as="geometry" />
        </mxCell>
        <mxCell id="A9EA3Yb4mj_I-pMkDgrw-115" value="j &amp;lt; cols3" style="rhombus;whiteSpace=wrap;html=1;" parent="1" vertex="1">
          <mxGeometry x="-1290" y="2750" width="80" height="80" as="geometry" />
        </mxCell>
        <mxCell id="A9EA3Yb4mj_I-pMkDgrw-121" style="edgeStyle=orthogonalEdgeStyle;rounded=0;orthogonalLoop=1;jettySize=auto;html=1;entryX=0.5;entryY=0;entryDx=0;entryDy=0;" parent="1" source="A9EA3Yb4mj_I-pMkDgrw-119" target="A9EA3Yb4mj_I-pMkDgrw-120" edge="1">
          <mxGeometry relative="1" as="geometry" />
        </mxCell>
        <mxCell id="A9EA3Yb4mj_I-pMkDgrw-119" value="Matrix3[ i ] [ j ] = Matrix1[ i ] [ j ]" style="rounded=0;whiteSpace=wrap;html=1;" parent="1" vertex="1">
          <mxGeometry x="-1200" y="2890" width="180" height="60" as="geometry" />
        </mxCell>
        <mxCell id="A9EA3Yb4mj_I-pMkDgrw-123" style="edgeStyle=orthogonalEdgeStyle;rounded=0;orthogonalLoop=1;jettySize=auto;html=1;" parent="1" source="A9EA3Yb4mj_I-pMkDgrw-120" edge="1">
          <mxGeometry relative="1" as="geometry">
            <mxPoint x="-1250" y="2720" as="targetPoint" />
            <Array as="points">
              <mxPoint x="-1110" y="3090" />
              <mxPoint x="-990" y="3090" />
              <mxPoint x="-990" y="2720" />
            </Array>
          </mxGeometry>
        </mxCell>
        <mxCell id="A9EA3Yb4mj_I-pMkDgrw-120" value="j += 1" style="rounded=0;whiteSpace=wrap;html=1;" parent="1" vertex="1">
          <mxGeometry x="-1170" y="2990" width="120" height="60" as="geometry" />
        </mxCell>
        <mxCell id="A9EA3Yb4mj_I-pMkDgrw-126" style="edgeStyle=orthogonalEdgeStyle;rounded=0;orthogonalLoop=1;jettySize=auto;html=1;" parent="1" source="A9EA3Yb4mj_I-pMkDgrw-124" edge="1">
          <mxGeometry relative="1" as="geometry">
            <mxPoint x="-1360" y="2510" as="targetPoint" />
            <Array as="points">
              <mxPoint x="-1360" y="3140" />
              <mxPoint x="-940" y="3140" />
              <mxPoint x="-940" y="2510" />
            </Array>
          </mxGeometry>
        </mxCell>
        <mxCell id="A9EA3Yb4mj_I-pMkDgrw-124" value="i += 1" style="rounded=0;whiteSpace=wrap;html=1;" parent="1" vertex="1">
          <mxGeometry x="-1420" y="2890" width="120" height="60" as="geometry" />
        </mxCell>
        <mxCell id="A9EA3Yb4mj_I-pMkDgrw-136" style="edgeStyle=orthogonalEdgeStyle;rounded=0;orthogonalLoop=1;jettySize=auto;html=1;entryX=0.5;entryY=0;entryDx=0;entryDy=0;" parent="1" source="A9EA3Yb4mj_I-pMkDgrw-128" target="A9EA3Yb4mj_I-pMkDgrw-129" edge="1">
          <mxGeometry relative="1" as="geometry" />
        </mxCell>
        <mxCell id="A9EA3Yb4mj_I-pMkDgrw-128" value="OUTPUT &quot;Transpose of Matrix1 is : &quot;" style="shape=parallelogram;perimeter=parallelogramPerimeter;whiteSpace=wrap;html=1;fixedSize=1;" parent="1" vertex="1">
          <mxGeometry x="-2030" y="2650" width="160" height="60" as="geometry" />
        </mxCell>
        <mxCell id="A9EA3Yb4mj_I-pMkDgrw-137" style="edgeStyle=orthogonalEdgeStyle;rounded=0;orthogonalLoop=1;jettySize=auto;html=1;entryX=0.5;entryY=0;entryDx=0;entryDy=0;" parent="1" source="A9EA3Yb4mj_I-pMkDgrw-129" target="A9EA3Yb4mj_I-pMkDgrw-130" edge="1">
          <mxGeometry relative="1" as="geometry" />
        </mxCell>
        <mxCell id="A9EA3Yb4mj_I-pMkDgrw-129" value="i = 0" style="rounded=0;whiteSpace=wrap;html=1;" parent="1" vertex="1">
          <mxGeometry x="-2010" y="2750" width="120" height="60" as="geometry" />
        </mxCell>
        <mxCell id="A9EA3Yb4mj_I-pMkDgrw-138" style="edgeStyle=orthogonalEdgeStyle;rounded=0;orthogonalLoop=1;jettySize=auto;html=1;entryX=0.5;entryY=0;entryDx=0;entryDy=0;" parent="1" source="A9EA3Yb4mj_I-pMkDgrw-130" target="A9EA3Yb4mj_I-pMkDgrw-131" edge="1">
          <mxGeometry relative="1" as="geometry" />
        </mxCell>
        <mxCell id="A9EA3Yb4mj_I-pMkDgrw-145" style="edgeStyle=orthogonalEdgeStyle;rounded=0;orthogonalLoop=1;jettySize=auto;html=1;entryX=0.5;entryY=0;entryDx=0;entryDy=0;" parent="1" source="A9EA3Yb4mj_I-pMkDgrw-130" target="A9EA3Yb4mj_I-pMkDgrw-146" edge="1">
          <mxGeometry relative="1" as="geometry">
            <mxPoint x="-2380" y="3040" as="targetPoint" />
          </mxGeometry>
        </mxCell>
        <mxCell id="A9EA3Yb4mj_I-pMkDgrw-130" value="i &amp;lt; rows3" style="rhombus;whiteSpace=wrap;html=1;" parent="1" vertex="1">
          <mxGeometry x="-1990" y="2860" width="80" height="80" as="geometry" />
        </mxCell>
        <mxCell id="A9EA3Yb4mj_I-pMkDgrw-139" style="edgeStyle=orthogonalEdgeStyle;rounded=0;orthogonalLoop=1;jettySize=auto;html=1;entryX=0.5;entryY=0;entryDx=0;entryDy=0;" parent="1" source="A9EA3Yb4mj_I-pMkDgrw-131" target="A9EA3Yb4mj_I-pMkDgrw-132" edge="1">
          <mxGeometry relative="1" as="geometry" />
        </mxCell>
        <mxCell id="A9EA3Yb4mj_I-pMkDgrw-131" value="j = 0" style="rounded=0;whiteSpace=wrap;html=1;" parent="1" vertex="1">
          <mxGeometry x="-1900" y="2950" width="120" height="60" as="geometry" />
        </mxCell>
        <mxCell id="A9EA3Yb4mj_I-pMkDgrw-140" style="edgeStyle=orthogonalEdgeStyle;rounded=0;orthogonalLoop=1;jettySize=auto;html=1;" parent="1" source="A9EA3Yb4mj_I-pMkDgrw-132" target="A9EA3Yb4mj_I-pMkDgrw-135" edge="1">
          <mxGeometry relative="1" as="geometry" />
        </mxCell>
        <mxCell id="A9EA3Yb4mj_I-pMkDgrw-141" style="edgeStyle=orthogonalEdgeStyle;rounded=0;orthogonalLoop=1;jettySize=auto;html=1;" parent="1" source="A9EA3Yb4mj_I-pMkDgrw-132" target="A9EA3Yb4mj_I-pMkDgrw-133" edge="1">
          <mxGeometry relative="1" as="geometry" />
        </mxCell>
        <mxCell id="A9EA3Yb4mj_I-pMkDgrw-132" value="j &amp;lt; cols3" style="rhombus;whiteSpace=wrap;html=1;" parent="1" vertex="1">
          <mxGeometry x="-1880" y="3070" width="80" height="80" as="geometry" />
        </mxCell>
        <mxCell id="A9EA3Yb4mj_I-pMkDgrw-142" style="edgeStyle=orthogonalEdgeStyle;rounded=0;orthogonalLoop=1;jettySize=auto;html=1;entryX=0.5;entryY=0;entryDx=0;entryDy=0;" parent="1" source="A9EA3Yb4mj_I-pMkDgrw-133" target="A9EA3Yb4mj_I-pMkDgrw-134" edge="1">
          <mxGeometry relative="1" as="geometry" />
        </mxCell>
        <mxCell id="A9EA3Yb4mj_I-pMkDgrw-133" value="OUTPUT Matrix3[ i ] [ j ]&amp;nbsp;" style="rounded=0;whiteSpace=wrap;html=1;" parent="1" vertex="1">
          <mxGeometry x="-1790" y="3210" width="180" height="60" as="geometry" />
        </mxCell>
        <mxCell id="A9EA3Yb4mj_I-pMkDgrw-143" style="edgeStyle=orthogonalEdgeStyle;rounded=0;orthogonalLoop=1;jettySize=auto;html=1;" parent="1" source="A9EA3Yb4mj_I-pMkDgrw-134" edge="1">
          <mxGeometry relative="1" as="geometry">
            <mxPoint x="-1840" y="3040" as="targetPoint" />
            <Array as="points">
              <mxPoint x="-1700" y="3410" />
              <mxPoint x="-1570" y="3410" />
              <mxPoint x="-1570" y="3040" />
            </Array>
          </mxGeometry>
        </mxCell>
        <mxCell id="A9EA3Yb4mj_I-pMkDgrw-134" value="j += 1" style="rounded=0;whiteSpace=wrap;html=1;" parent="1" vertex="1">
          <mxGeometry x="-1760" y="3310" width="120" height="60" as="geometry" />
        </mxCell>
        <mxCell id="A9EA3Yb4mj_I-pMkDgrw-144" style="edgeStyle=orthogonalEdgeStyle;rounded=0;orthogonalLoop=1;jettySize=auto;html=1;" parent="1" source="A9EA3Yb4mj_I-pMkDgrw-135" edge="1">
          <mxGeometry relative="1" as="geometry">
            <mxPoint x="-1950" y="2830" as="targetPoint" />
            <Array as="points">
              <mxPoint x="-1950" y="3460" />
              <mxPoint x="-1510" y="3460" />
              <mxPoint x="-1510" y="2830" />
            </Array>
          </mxGeometry>
        </mxCell>
        <mxCell id="A9EA3Yb4mj_I-pMkDgrw-135" value="i += 1" style="rounded=0;whiteSpace=wrap;html=1;" parent="1" vertex="1">
          <mxGeometry x="-2010" y="3210" width="120" height="60" as="geometry" />
        </mxCell>
        <mxCell id="A9EA3Yb4mj_I-pMkDgrw-148" style="edgeStyle=orthogonalEdgeStyle;rounded=0;orthogonalLoop=1;jettySize=auto;html=1;entryX=0.5;entryY=0;entryDx=0;entryDy=0;exitX=1;exitY=0.5;exitDx=0;exitDy=0;" parent="1" source="A9EA3Yb4mj_I-pMkDgrw-146" target="A9EA3Yb4mj_I-pMkDgrw-147" edge="1">
          <mxGeometry relative="1" as="geometry" />
        </mxCell>
        <mxCell id="uquRneQY0PpmjTEqL6Ax-1" style="edgeStyle=orthogonalEdgeStyle;rounded=0;orthogonalLoop=1;jettySize=auto;html=1;entryX=0.5;entryY=0;entryDx=0;entryDy=0;" edge="1" parent="1" source="A9EA3Yb4mj_I-pMkDgrw-146" target="uquRneQY0PpmjTEqL6Ax-2">
          <mxGeometry relative="1" as="geometry">
            <mxPoint x="-3010" y="3140" as="targetPoint" />
            <Array as="points">
              <mxPoint x="-3010" y="3015" />
            </Array>
          </mxGeometry>
        </mxCell>
        <mxCell id="A9EA3Yb4mj_I-pMkDgrw-146" value="cols1 != rows2" style="rhombus;whiteSpace=wrap;html=1;" parent="1" vertex="1">
          <mxGeometry x="-2420" y="2970" width="100" height="90" as="geometry" />
        </mxCell>
        <mxCell id="uquRneQY0PpmjTEqL6Ax-51" style="edgeStyle=orthogonalEdgeStyle;rounded=0;orthogonalLoop=1;jettySize=auto;html=1;entryX=1;entryY=0.5;entryDx=0;entryDy=0;exitX=0.5;exitY=1;exitDx=0;exitDy=0;" edge="1" parent="1" source="A9EA3Yb4mj_I-pMkDgrw-147" target="uquRneQY0PpmjTEqL6Ax-49">
          <mxGeometry relative="1" as="geometry">
            <Array as="points">
              <mxPoint x="-2160" y="3140" />
              <mxPoint x="-2160" y="4400" />
            </Array>
          </mxGeometry>
        </mxCell>
        <mxCell id="A9EA3Yb4mj_I-pMkDgrw-147" value="OUTPUT &quot;Matrix1 and Matrix2 cannot multiply&quot;" style="shape=parallelogram;perimeter=parallelogramPerimeter;whiteSpace=wrap;html=1;fixedSize=1;" parent="1" vertex="1">
          <mxGeometry x="-2260" y="3080" width="200" height="60" as="geometry" />
        </mxCell>
        <mxCell id="uquRneQY0PpmjTEqL6Ax-4" style="edgeStyle=orthogonalEdgeStyle;rounded=0;orthogonalLoop=1;jettySize=auto;html=1;entryX=0.5;entryY=0;entryDx=0;entryDy=0;" edge="1" parent="1" source="uquRneQY0PpmjTEqL6Ax-2" target="uquRneQY0PpmjTEqL6Ax-3">
          <mxGeometry relative="1" as="geometry" />
        </mxCell>
        <mxCell id="uquRneQY0PpmjTEqL6Ax-2" value="rows4 = rows1" style="rounded=0;whiteSpace=wrap;html=1;" vertex="1" parent="1">
          <mxGeometry x="-3070" y="3080" width="120" height="40" as="geometry" />
        </mxCell>
        <mxCell id="uquRneQY0PpmjTEqL6Ax-6" style="edgeStyle=orthogonalEdgeStyle;rounded=0;orthogonalLoop=1;jettySize=auto;html=1;entryX=0.5;entryY=0;entryDx=0;entryDy=0;" edge="1" parent="1" source="uquRneQY0PpmjTEqL6Ax-3" target="uquRneQY0PpmjTEqL6Ax-5">
          <mxGeometry relative="1" as="geometry" />
        </mxCell>
        <mxCell id="uquRneQY0PpmjTEqL6Ax-3" value="cols4 = cols2" style="rounded=0;whiteSpace=wrap;html=1;" vertex="1" parent="1">
          <mxGeometry x="-3070" y="3160" width="120" height="40" as="geometry" />
        </mxCell>
        <mxCell id="uquRneQY0PpmjTEqL6Ax-8" style="edgeStyle=orthogonalEdgeStyle;rounded=0;orthogonalLoop=1;jettySize=auto;html=1;entryX=0.5;entryY=0;entryDx=0;entryDy=0;" edge="1" parent="1" source="uquRneQY0PpmjTEqL6Ax-5" target="uquRneQY0PpmjTEqL6Ax-7">
          <mxGeometry relative="1" as="geometry" />
        </mxCell>
        <mxCell id="uquRneQY0PpmjTEqL6Ax-5" value="i = 0" style="rounded=0;whiteSpace=wrap;html=1;" vertex="1" parent="1">
          <mxGeometry x="-3070" y="3240" width="120" height="40" as="geometry" />
        </mxCell>
        <mxCell id="uquRneQY0PpmjTEqL6Ax-12" style="edgeStyle=orthogonalEdgeStyle;rounded=0;orthogonalLoop=1;jettySize=auto;html=1;" edge="1" parent="1" source="uquRneQY0PpmjTEqL6Ax-7" target="uquRneQY0PpmjTEqL6Ax-10">
          <mxGeometry relative="1" as="geometry" />
        </mxCell>
        <mxCell id="uquRneQY0PpmjTEqL6Ax-31" style="edgeStyle=orthogonalEdgeStyle;rounded=0;orthogonalLoop=1;jettySize=auto;html=1;entryX=0.5;entryY=0;entryDx=0;entryDy=0;" edge="1" parent="1" source="uquRneQY0PpmjTEqL6Ax-7" target="uquRneQY0PpmjTEqL6Ax-32">
          <mxGeometry relative="1" as="geometry">
            <mxPoint x="-3490" y="3670.000000000001" as="targetPoint" />
          </mxGeometry>
        </mxCell>
        <mxCell id="uquRneQY0PpmjTEqL6Ax-7" value="i &amp;lt; rows4" style="rhombus;whiteSpace=wrap;html=1;" vertex="1" parent="1">
          <mxGeometry x="-3055" y="3320" width="90" height="70" as="geometry" />
        </mxCell>
        <mxCell id="uquRneQY0PpmjTEqL6Ax-9" style="edgeStyle=orthogonalEdgeStyle;rounded=0;orthogonalLoop=1;jettySize=auto;html=1;entryX=0.5;entryY=0;entryDx=0;entryDy=0;" edge="1" parent="1" source="uquRneQY0PpmjTEqL6Ax-10" target="uquRneQY0PpmjTEqL6Ax-11">
          <mxGeometry relative="1" as="geometry" />
        </mxCell>
        <mxCell id="uquRneQY0PpmjTEqL6Ax-10" value="j = 0" style="rounded=0;whiteSpace=wrap;html=1;" vertex="1" parent="1">
          <mxGeometry x="-2950" y="3410" width="120" height="40" as="geometry" />
        </mxCell>
        <mxCell id="uquRneQY0PpmjTEqL6Ax-17" style="edgeStyle=orthogonalEdgeStyle;rounded=0;orthogonalLoop=1;jettySize=auto;html=1;entryX=0.5;entryY=0;entryDx=0;entryDy=0;" edge="1" parent="1" source="uquRneQY0PpmjTEqL6Ax-11" target="uquRneQY0PpmjTEqL6Ax-14">
          <mxGeometry relative="1" as="geometry" />
        </mxCell>
        <mxCell id="uquRneQY0PpmjTEqL6Ax-29" style="edgeStyle=orthogonalEdgeStyle;rounded=0;orthogonalLoop=1;jettySize=auto;html=1;entryX=0.5;entryY=0;entryDx=0;entryDy=0;exitX=0;exitY=0.5;exitDx=0;exitDy=0;" edge="1" parent="1" source="uquRneQY0PpmjTEqL6Ax-11" target="uquRneQY0PpmjTEqL6Ax-28">
          <mxGeometry relative="1" as="geometry" />
        </mxCell>
        <mxCell id="uquRneQY0PpmjTEqL6Ax-11" value="j &amp;lt; cols4" style="rhombus;whiteSpace=wrap;html=1;" vertex="1" parent="1">
          <mxGeometry x="-2935" y="3500" width="90" height="70" as="geometry" />
        </mxCell>
        <mxCell id="uquRneQY0PpmjTEqL6Ax-18" style="edgeStyle=orthogonalEdgeStyle;rounded=0;orthogonalLoop=1;jettySize=auto;html=1;entryX=0.5;entryY=0;entryDx=0;entryDy=0;" edge="1" parent="1" source="uquRneQY0PpmjTEqL6Ax-14" target="uquRneQY0PpmjTEqL6Ax-16">
          <mxGeometry relative="1" as="geometry" />
        </mxCell>
        <mxCell id="uquRneQY0PpmjTEqL6Ax-14" value="Matrix4[ i ][ j ] = 0" style="rounded=0;whiteSpace=wrap;html=1;" vertex="1" parent="1">
          <mxGeometry x="-2830" y="3570" width="120" height="40" as="geometry" />
        </mxCell>
        <mxCell id="uquRneQY0PpmjTEqL6Ax-21" style="edgeStyle=orthogonalEdgeStyle;rounded=0;orthogonalLoop=1;jettySize=auto;html=1;entryX=0.5;entryY=0;entryDx=0;entryDy=0;" edge="1" parent="1" source="uquRneQY0PpmjTEqL6Ax-15" target="uquRneQY0PpmjTEqL6Ax-20">
          <mxGeometry relative="1" as="geometry" />
        </mxCell>
        <mxCell id="uquRneQY0PpmjTEqL6Ax-26" style="edgeStyle=orthogonalEdgeStyle;rounded=0;orthogonalLoop=1;jettySize=auto;html=1;entryX=0.5;entryY=0;entryDx=0;entryDy=0;exitX=0;exitY=0.5;exitDx=0;exitDy=0;" edge="1" parent="1" source="uquRneQY0PpmjTEqL6Ax-15" target="uquRneQY0PpmjTEqL6Ax-25">
          <mxGeometry relative="1" as="geometry" />
        </mxCell>
        <mxCell id="uquRneQY0PpmjTEqL6Ax-15" value="k &amp;lt; cols1" style="rhombus;whiteSpace=wrap;html=1;" vertex="1" parent="1">
          <mxGeometry x="-2815" y="3760" width="90" height="70" as="geometry" />
        </mxCell>
        <mxCell id="uquRneQY0PpmjTEqL6Ax-19" style="edgeStyle=orthogonalEdgeStyle;rounded=0;orthogonalLoop=1;jettySize=auto;html=1;entryX=0.5;entryY=0;entryDx=0;entryDy=0;" edge="1" parent="1" source="uquRneQY0PpmjTEqL6Ax-16" target="uquRneQY0PpmjTEqL6Ax-15">
          <mxGeometry relative="1" as="geometry" />
        </mxCell>
        <mxCell id="uquRneQY0PpmjTEqL6Ax-16" value="k = 0" style="rounded=0;whiteSpace=wrap;html=1;" vertex="1" parent="1">
          <mxGeometry x="-2830" y="3650" width="120" height="40" as="geometry" />
        </mxCell>
        <mxCell id="uquRneQY0PpmjTEqL6Ax-23" style="edgeStyle=orthogonalEdgeStyle;rounded=0;orthogonalLoop=1;jettySize=auto;html=1;entryX=0.5;entryY=0;entryDx=0;entryDy=0;" edge="1" parent="1" source="uquRneQY0PpmjTEqL6Ax-20" target="uquRneQY0PpmjTEqL6Ax-22">
          <mxGeometry relative="1" as="geometry" />
        </mxCell>
        <mxCell id="uquRneQY0PpmjTEqL6Ax-20" value="Matrix4[ i ][ j ] += Matrix1[ i ][ k ] * Matrix2[ k ][ j ]" style="rounded=0;whiteSpace=wrap;html=1;" vertex="1" parent="1">
          <mxGeometry x="-2710" y="3860" width="260" height="40" as="geometry" />
        </mxCell>
        <mxCell id="uquRneQY0PpmjTEqL6Ax-24" style="edgeStyle=orthogonalEdgeStyle;rounded=0;orthogonalLoop=1;jettySize=auto;html=1;" edge="1" parent="1" source="uquRneQY0PpmjTEqL6Ax-22">
          <mxGeometry relative="1" as="geometry">
            <mxPoint x="-2770" y="3710" as="targetPoint" />
            <Array as="points">
              <mxPoint x="-2580" y="4010" />
              <mxPoint x="-2420" y="4010" />
              <mxPoint x="-2420" y="3710" />
            </Array>
          </mxGeometry>
        </mxCell>
        <mxCell id="uquRneQY0PpmjTEqL6Ax-22" value="k += 1" style="rounded=0;whiteSpace=wrap;html=1;" vertex="1" parent="1">
          <mxGeometry x="-2640" y="3940" width="120" height="40" as="geometry" />
        </mxCell>
        <mxCell id="uquRneQY0PpmjTEqL6Ax-27" style="edgeStyle=orthogonalEdgeStyle;rounded=0;orthogonalLoop=1;jettySize=auto;html=1;" edge="1" parent="1" source="uquRneQY0PpmjTEqL6Ax-25">
          <mxGeometry relative="1" as="geometry">
            <mxPoint x="-2890" y="3470" as="targetPoint" />
            <Array as="points">
              <mxPoint x="-2870" y="4060" />
              <mxPoint x="-2350" y="4060" />
              <mxPoint x="-2350" y="3470" />
            </Array>
          </mxGeometry>
        </mxCell>
        <mxCell id="uquRneQY0PpmjTEqL6Ax-25" value="j += 1" style="rounded=0;whiteSpace=wrap;html=1;" vertex="1" parent="1">
          <mxGeometry x="-2935" y="3900" width="120" height="40" as="geometry" />
        </mxCell>
        <mxCell id="uquRneQY0PpmjTEqL6Ax-30" style="edgeStyle=orthogonalEdgeStyle;rounded=0;orthogonalLoop=1;jettySize=auto;html=1;" edge="1" parent="1" source="uquRneQY0PpmjTEqL6Ax-28">
          <mxGeometry relative="1" as="geometry">
            <mxPoint x="-3010" y="3300" as="targetPoint" />
            <Array as="points">
              <mxPoint x="-2995" y="4130" />
              <mxPoint x="-2280" y="4130" />
              <mxPoint x="-2280" y="3300" />
            </Array>
          </mxGeometry>
        </mxCell>
        <mxCell id="uquRneQY0PpmjTEqL6Ax-28" value="i += 1" style="rounded=0;whiteSpace=wrap;html=1;" vertex="1" parent="1">
          <mxGeometry x="-3055" y="3610" width="120" height="40" as="geometry" />
        </mxCell>
        <mxCell id="uquRneQY0PpmjTEqL6Ax-34" style="edgeStyle=orthogonalEdgeStyle;rounded=0;orthogonalLoop=1;jettySize=auto;html=1;entryX=0.5;entryY=0;entryDx=0;entryDy=0;" edge="1" parent="1" source="uquRneQY0PpmjTEqL6Ax-32" target="uquRneQY0PpmjTEqL6Ax-33">
          <mxGeometry relative="1" as="geometry" />
        </mxCell>
        <mxCell id="uquRneQY0PpmjTEqL6Ax-32" value="OUTPUT &quot;Matrix1 x Matrix2 is :&quot;" style="shape=parallelogram;perimeter=parallelogramPerimeter;whiteSpace=wrap;html=1;fixedSize=1;" vertex="1" parent="1">
          <mxGeometry x="-3690" y="3400" width="220" height="60" as="geometry" />
        </mxCell>
        <mxCell id="uquRneQY0PpmjTEqL6Ax-38" style="edgeStyle=orthogonalEdgeStyle;rounded=0;orthogonalLoop=1;jettySize=auto;html=1;entryX=0.5;entryY=0;entryDx=0;entryDy=0;" edge="1" parent="1" source="uquRneQY0PpmjTEqL6Ax-33" target="uquRneQY0PpmjTEqL6Ax-35">
          <mxGeometry relative="1" as="geometry" />
        </mxCell>
        <mxCell id="uquRneQY0PpmjTEqL6Ax-33" value="i =0" style="rounded=0;whiteSpace=wrap;html=1;" vertex="1" parent="1">
          <mxGeometry x="-3640" y="3490" width="120" height="40" as="geometry" />
        </mxCell>
        <mxCell id="uquRneQY0PpmjTEqL6Ax-39" style="edgeStyle=orthogonalEdgeStyle;rounded=0;orthogonalLoop=1;jettySize=auto;html=1;entryX=0.5;entryY=0;entryDx=0;entryDy=0;" edge="1" parent="1" source="uquRneQY0PpmjTEqL6Ax-35" target="uquRneQY0PpmjTEqL6Ax-36">
          <mxGeometry relative="1" as="geometry" />
        </mxCell>
        <mxCell id="uquRneQY0PpmjTEqL6Ax-50" style="edgeStyle=orthogonalEdgeStyle;rounded=0;orthogonalLoop=1;jettySize=auto;html=1;entryX=0;entryY=0.5;entryDx=0;entryDy=0;" edge="1" parent="1" source="uquRneQY0PpmjTEqL6Ax-35" target="uquRneQY0PpmjTEqL6Ax-49">
          <mxGeometry relative="1" as="geometry">
            <mxPoint x="-3370" y="4240" as="targetPoint" />
            <Array as="points">
              <mxPoint x="-3690" y="3615" />
              <mxPoint x="-3690" y="4400" />
            </Array>
          </mxGeometry>
        </mxCell>
        <mxCell id="uquRneQY0PpmjTEqL6Ax-35" value="i &amp;lt; rows4" style="rhombus;whiteSpace=wrap;html=1;" vertex="1" parent="1">
          <mxGeometry x="-3625" y="3580" width="90" height="70" as="geometry" />
        </mxCell>
        <mxCell id="uquRneQY0PpmjTEqL6Ax-40" style="edgeStyle=orthogonalEdgeStyle;rounded=0;orthogonalLoop=1;jettySize=auto;html=1;entryX=0.5;entryY=0;entryDx=0;entryDy=0;" edge="1" parent="1" source="uquRneQY0PpmjTEqL6Ax-36" target="uquRneQY0PpmjTEqL6Ax-37">
          <mxGeometry relative="1" as="geometry" />
        </mxCell>
        <mxCell id="uquRneQY0PpmjTEqL6Ax-36" value="j =0" style="rounded=0;whiteSpace=wrap;html=1;" vertex="1" parent="1">
          <mxGeometry x="-3520" y="3660" width="120" height="40" as="geometry" />
        </mxCell>
        <mxCell id="uquRneQY0PpmjTEqL6Ax-44" style="edgeStyle=orthogonalEdgeStyle;rounded=0;orthogonalLoop=1;jettySize=auto;html=1;entryX=0.5;entryY=0;entryDx=0;entryDy=0;exitX=1;exitY=0.5;exitDx=0;exitDy=0;" edge="1" parent="1" source="uquRneQY0PpmjTEqL6Ax-37" target="uquRneQY0PpmjTEqL6Ax-41">
          <mxGeometry relative="1" as="geometry" />
        </mxCell>
        <mxCell id="uquRneQY0PpmjTEqL6Ax-47" style="edgeStyle=orthogonalEdgeStyle;rounded=0;orthogonalLoop=1;jettySize=auto;html=1;entryX=0.5;entryY=0;entryDx=0;entryDy=0;exitX=0;exitY=0.5;exitDx=0;exitDy=0;" edge="1" parent="1" source="uquRneQY0PpmjTEqL6Ax-37" target="uquRneQY0PpmjTEqL6Ax-46">
          <mxGeometry relative="1" as="geometry" />
        </mxCell>
        <mxCell id="uquRneQY0PpmjTEqL6Ax-37" value="j &amp;lt; cols4" style="rhombus;whiteSpace=wrap;html=1;" vertex="1" parent="1">
          <mxGeometry x="-3505" y="3750" width="90" height="70" as="geometry" />
        </mxCell>
        <mxCell id="uquRneQY0PpmjTEqL6Ax-43" style="edgeStyle=orthogonalEdgeStyle;rounded=0;orthogonalLoop=1;jettySize=auto;html=1;entryX=0.5;entryY=0;entryDx=0;entryDy=0;" edge="1" parent="1" source="uquRneQY0PpmjTEqL6Ax-41" target="uquRneQY0PpmjTEqL6Ax-42">
          <mxGeometry relative="1" as="geometry" />
        </mxCell>
        <mxCell id="uquRneQY0PpmjTEqL6Ax-41" value="OUTPUT Matrix4 [ i ][ j ]" style="shape=parallelogram;perimeter=parallelogramPerimeter;whiteSpace=wrap;html=1;fixedSize=1;" vertex="1" parent="1">
          <mxGeometry x="-3415" y="3840" width="170" height="60" as="geometry" />
        </mxCell>
        <mxCell id="uquRneQY0PpmjTEqL6Ax-45" style="edgeStyle=orthogonalEdgeStyle;rounded=0;orthogonalLoop=1;jettySize=auto;html=1;" edge="1" parent="1" source="uquRneQY0PpmjTEqL6Ax-42">
          <mxGeometry relative="1" as="geometry">
            <mxPoint x="-3460" y="3720" as="targetPoint" />
            <Array as="points">
              <mxPoint x="-3330" y="4050" />
              <mxPoint x="-3200" y="4050" />
              <mxPoint x="-3200" y="3720" />
            </Array>
          </mxGeometry>
        </mxCell>
        <mxCell id="uquRneQY0PpmjTEqL6Ax-42" value="j += 1" style="rounded=0;whiteSpace=wrap;html=1;" vertex="1" parent="1">
          <mxGeometry x="-3390" y="3950" width="120" height="50" as="geometry" />
        </mxCell>
        <mxCell id="uquRneQY0PpmjTEqL6Ax-48" style="edgeStyle=orthogonalEdgeStyle;rounded=0;orthogonalLoop=1;jettySize=auto;html=1;exitX=0.5;exitY=1;exitDx=0;exitDy=0;" edge="1" parent="1" source="uquRneQY0PpmjTEqL6Ax-46">
          <mxGeometry relative="1" as="geometry">
            <mxPoint x="-3580" y="3550" as="targetPoint" />
            <Array as="points">
              <mxPoint x="-3580" y="4130" />
              <mxPoint x="-3140" y="4130" />
              <mxPoint x="-3140" y="3550" />
            </Array>
          </mxGeometry>
        </mxCell>
        <mxCell id="uquRneQY0PpmjTEqL6Ax-46" value="i += 1" style="rounded=0;whiteSpace=wrap;html=1;" vertex="1" parent="1">
          <mxGeometry x="-3640" y="3860" width="120" height="40" as="geometry" />
        </mxCell>
        <mxCell id="uquRneQY0PpmjTEqL6Ax-52" style="edgeStyle=orthogonalEdgeStyle;rounded=0;orthogonalLoop=1;jettySize=auto;html=1;entryX=0.5;entryY=0;entryDx=0;entryDy=0;entryPerimeter=0;" edge="1" parent="1" source="uquRneQY0PpmjTEqL6Ax-49" target="A9EA3Yb4mj_I-pMkDgrw-2">
          <mxGeometry relative="1" as="geometry" />
        </mxCell>
        <mxCell id="uquRneQY0PpmjTEqL6Ax-49" value="" style="ellipse;whiteSpace=wrap;html=1;aspect=fixed;" vertex="1" parent="1">
          <mxGeometry x="-3020" y="4390" width="20" height="20" as="geometry" />
        </mxCell>
        <mxCell id="uquRneQY0PpmjTEqL6Ax-53" value="T" style="text;html=1;strokeColor=none;fillColor=none;align=center;verticalAlign=middle;whiteSpace=wrap;rounded=0;" vertex="1" parent="1">
          <mxGeometry x="920" y="1000" width="60" height="30" as="geometry" />
        </mxCell>
        <mxCell id="uquRneQY0PpmjTEqL6Ax-54" value="T" style="text;html=1;strokeColor=none;fillColor=none;align=center;verticalAlign=middle;whiteSpace=wrap;rounded=0;" vertex="1" parent="1">
          <mxGeometry x="1090" y="1220" width="60" height="30" as="geometry" />
        </mxCell>
        <mxCell id="uquRneQY0PpmjTEqL6Ax-55" value="F" style="text;html=1;strokeColor=none;fillColor=none;align=center;verticalAlign=middle;whiteSpace=wrap;rounded=0;" vertex="1" parent="1">
          <mxGeometry x="910" y="1220" width="60" height="30" as="geometry" />
        </mxCell>
        <mxCell id="uquRneQY0PpmjTEqL6Ax-56" value="F" style="text;html=1;strokeColor=none;fillColor=none;align=center;verticalAlign=middle;whiteSpace=wrap;rounded=0;" vertex="1" parent="1">
          <mxGeometry x="480" y="1000" width="60" height="30" as="geometry" />
        </mxCell>
        <mxCell id="uquRneQY0PpmjTEqL6Ax-57" value="T" style="text;html=1;strokeColor=none;fillColor=none;align=center;verticalAlign=middle;whiteSpace=wrap;rounded=0;" vertex="1" parent="1">
          <mxGeometry x="340" y="1500" width="60" height="30" as="geometry" />
        </mxCell>
        <mxCell id="uquRneQY0PpmjTEqL6Ax-58" value="F" style="text;html=1;strokeColor=none;fillColor=none;align=center;verticalAlign=middle;whiteSpace=wrap;rounded=0;" vertex="1" parent="1">
          <mxGeometry x="-70" y="1500" width="60" height="30" as="geometry" />
        </mxCell>
        <mxCell id="uquRneQY0PpmjTEqL6Ax-59" value="T" style="text;html=1;strokeColor=none;fillColor=none;align=center;verticalAlign=middle;whiteSpace=wrap;rounded=0;" vertex="1" parent="1">
          <mxGeometry x="500" y="1710" width="60" height="30" as="geometry" />
        </mxCell>
        <mxCell id="uquRneQY0PpmjTEqL6Ax-60" value="F" style="text;html=1;strokeColor=none;fillColor=none;align=center;verticalAlign=middle;whiteSpace=wrap;rounded=0;" vertex="1" parent="1">
          <mxGeometry x="322" y="1710" width="60" height="30" as="geometry" />
        </mxCell>
        <mxCell id="uquRneQY0PpmjTEqL6Ax-61" value="T" style="text;html=1;strokeColor=none;fillColor=none;align=center;verticalAlign=middle;whiteSpace=wrap;rounded=0;" vertex="1" parent="1">
          <mxGeometry x="-240" y="1815" width="60" height="30" as="geometry" />
        </mxCell>
        <mxCell id="uquRneQY0PpmjTEqL6Ax-62" value="T" style="text;html=1;strokeColor=none;fillColor=none;align=center;verticalAlign=middle;whiteSpace=wrap;rounded=0;" vertex="1" parent="1">
          <mxGeometry x="-100" y="2040" width="60" height="30" as="geometry" />
        </mxCell>
        <mxCell id="uquRneQY0PpmjTEqL6Ax-63" value="F" style="text;html=1;strokeColor=none;fillColor=none;align=center;verticalAlign=middle;whiteSpace=wrap;rounded=0;" vertex="1" parent="1">
          <mxGeometry x="-270" y="2040" width="60" height="30" as="geometry" />
        </mxCell>
        <mxCell id="uquRneQY0PpmjTEqL6Ax-64" value="F" style="text;html=1;strokeColor=none;fillColor=none;align=center;verticalAlign=middle;whiteSpace=wrap;rounded=0;" vertex="1" parent="1">
          <mxGeometry x="-645" y="1815" width="60" height="30" as="geometry" />
        </mxCell>
        <mxCell id="uquRneQY0PpmjTEqL6Ax-65" value="T" style="text;html=1;strokeColor=none;fillColor=none;align=center;verticalAlign=middle;whiteSpace=wrap;rounded=0;" vertex="1" parent="1">
          <mxGeometry x="-800" y="2130" width="60" height="30" as="geometry" />
        </mxCell>
        <mxCell id="uquRneQY0PpmjTEqL6Ax-66" value="T" style="text;html=1;strokeColor=none;fillColor=none;align=center;verticalAlign=middle;whiteSpace=wrap;rounded=0;" vertex="1" parent="1">
          <mxGeometry x="-670" y="2360" width="60" height="30" as="geometry" />
        </mxCell>
        <mxCell id="uquRneQY0PpmjTEqL6Ax-67" value="F" style="text;html=1;strokeColor=none;fillColor=none;align=center;verticalAlign=middle;whiteSpace=wrap;rounded=0;" vertex="1" parent="1">
          <mxGeometry x="-830" y="2360" width="60" height="30" as="geometry" />
        </mxCell>
        <mxCell id="uquRneQY0PpmjTEqL6Ax-68" value="F" style="text;html=1;strokeColor=none;fillColor=none;align=center;verticalAlign=middle;whiteSpace=wrap;rounded=0;" vertex="1" parent="1">
          <mxGeometry x="-1170" y="2130" width="60" height="30" as="geometry" />
        </mxCell>
        <mxCell id="uquRneQY0PpmjTEqL6Ax-69" value="T" style="text;html=1;strokeColor=none;fillColor=none;align=center;verticalAlign=middle;whiteSpace=wrap;rounded=0;" vertex="1" parent="1">
          <mxGeometry x="-1310" y="2550" width="60" height="30" as="geometry" />
        </mxCell>
        <mxCell id="uquRneQY0PpmjTEqL6Ax-70" value="T" style="text;html=1;strokeColor=none;fillColor=none;align=center;verticalAlign=middle;whiteSpace=wrap;rounded=0;" vertex="1" parent="1">
          <mxGeometry x="-1190" y="2760" width="60" height="30" as="geometry" />
        </mxCell>
        <mxCell id="uquRneQY0PpmjTEqL6Ax-71" value="F" style="text;html=1;strokeColor=none;fillColor=none;align=center;verticalAlign=middle;whiteSpace=wrap;rounded=0;" vertex="1" parent="1">
          <mxGeometry x="-1360" y="2760" width="60" height="30" as="geometry" />
        </mxCell>
        <mxCell id="uquRneQY0PpmjTEqL6Ax-72" value="F" style="text;html=1;strokeColor=none;fillColor=none;align=center;verticalAlign=middle;whiteSpace=wrap;rounded=0;" vertex="1" parent="1">
          <mxGeometry x="-1730" y="2550" width="60" height="30" as="geometry" />
        </mxCell>
        <mxCell id="uquRneQY0PpmjTEqL6Ax-73" value="T" style="text;html=1;strokeColor=none;fillColor=none;align=center;verticalAlign=middle;whiteSpace=wrap;rounded=0;" vertex="1" parent="1">
          <mxGeometry x="-1900" y="2870" width="60" height="30" as="geometry" />
        </mxCell>
        <mxCell id="uquRneQY0PpmjTEqL6Ax-74" value="F" style="text;html=1;strokeColor=none;fillColor=none;align=center;verticalAlign=middle;whiteSpace=wrap;rounded=0;" vertex="1" parent="1">
          <mxGeometry x="-2190" y="2870" width="60" height="30" as="geometry" />
        </mxCell>
        <mxCell id="uquRneQY0PpmjTEqL6Ax-75" value="F" style="text;html=1;strokeColor=none;fillColor=none;align=center;verticalAlign=middle;whiteSpace=wrap;rounded=0;" vertex="1" parent="1">
          <mxGeometry x="-1950" y="3080" width="60" height="30" as="geometry" />
        </mxCell>
        <mxCell id="uquRneQY0PpmjTEqL6Ax-76" value="T" style="text;html=1;strokeColor=none;fillColor=none;align=center;verticalAlign=middle;whiteSpace=wrap;rounded=0;" vertex="1" parent="1">
          <mxGeometry x="-1780" y="3081" width="60" height="30" as="geometry" />
        </mxCell>
        <mxCell id="uquRneQY0PpmjTEqL6Ax-77" value="T" style="text;html=1;strokeColor=none;fillColor=none;align=center;verticalAlign=middle;whiteSpace=wrap;rounded=0;" vertex="1" parent="1">
          <mxGeometry x="-2270" y="2981" width="60" height="30" as="geometry" />
        </mxCell>
        <mxCell id="uquRneQY0PpmjTEqL6Ax-78" value="F" style="text;html=1;strokeColor=none;fillColor=none;align=center;verticalAlign=middle;whiteSpace=wrap;rounded=0;" vertex="1" parent="1">
          <mxGeometry x="-2760" y="2982" width="60" height="30" as="geometry" />
        </mxCell>
        <mxCell id="uquRneQY0PpmjTEqL6Ax-79" value="T" style="text;html=1;strokeColor=none;fillColor=none;align=center;verticalAlign=middle;whiteSpace=wrap;rounded=0;" vertex="1" parent="1">
          <mxGeometry x="-2965" y="3325" width="60" height="30" as="geometry" />
        </mxCell>
        <mxCell id="uquRneQY0PpmjTEqL6Ax-80" value="F" style="text;html=1;strokeColor=none;fillColor=none;align=center;verticalAlign=middle;whiteSpace=wrap;rounded=0;" vertex="1" parent="1">
          <mxGeometry x="-3370" y="3326" width="60" height="30" as="geometry" />
        </mxCell>
        <mxCell id="uquRneQY0PpmjTEqL6Ax-81" value="T" style="text;html=1;strokeColor=none;fillColor=none;align=center;verticalAlign=middle;whiteSpace=wrap;rounded=0;" vertex="1" parent="1">
          <mxGeometry x="-2840" y="3500" width="60" height="30" as="geometry" />
        </mxCell>
        <mxCell id="uquRneQY0PpmjTEqL6Ax-82" value="F" style="text;html=1;strokeColor=none;fillColor=none;align=center;verticalAlign=middle;whiteSpace=wrap;rounded=0;" vertex="1" parent="1">
          <mxGeometry x="-2995" y="3501" width="60" height="30" as="geometry" />
        </mxCell>
        <mxCell id="uquRneQY0PpmjTEqL6Ax-83" value="T" style="text;html=1;strokeColor=none;fillColor=none;align=center;verticalAlign=middle;whiteSpace=wrap;rounded=0;" vertex="1" parent="1">
          <mxGeometry x="-2680" y="3760" width="60" height="30" as="geometry" />
        </mxCell>
        <mxCell id="uquRneQY0PpmjTEqL6Ax-84" value="F" style="text;html=1;strokeColor=none;fillColor=none;align=center;verticalAlign=middle;whiteSpace=wrap;rounded=0;" vertex="1" parent="1">
          <mxGeometry x="-2880" y="3761" width="60" height="30" as="geometry" />
        </mxCell>
        <mxCell id="uquRneQY0PpmjTEqL6Ax-85" value="T" style="text;html=1;strokeColor=none;fillColor=none;align=center;verticalAlign=middle;whiteSpace=wrap;rounded=0;" vertex="1" parent="1">
          <mxGeometry x="-3530" y="3581" width="60" height="30" as="geometry" />
        </mxCell>
        <mxCell id="uquRneQY0PpmjTEqL6Ax-86" value="F" style="text;html=1;strokeColor=none;fillColor=none;align=center;verticalAlign=middle;whiteSpace=wrap;rounded=0;" vertex="1" parent="1">
          <mxGeometry x="-3690" y="3582" width="60" height="30" as="geometry" />
        </mxCell>
        <mxCell id="uquRneQY0PpmjTEqL6Ax-87" value="T" style="text;html=1;strokeColor=none;fillColor=none;align=center;verticalAlign=middle;whiteSpace=wrap;rounded=0;" vertex="1" parent="1">
          <mxGeometry x="-3400" y="3750" width="60" height="30" as="geometry" />
        </mxCell>
        <mxCell id="uquRneQY0PpmjTEqL6Ax-88" value="F" style="text;html=1;strokeColor=none;fillColor=none;align=center;verticalAlign=middle;whiteSpace=wrap;rounded=0;" vertex="1" parent="1">
          <mxGeometry x="-3565" y="3760" width="60" height="30" as="geometry" />
        </mxCell>
      </root>
    </mxGraphModel>
  </diagram>
</mxfile>
